<?xml version="1.0" standalone="no"?><!DOCTYPE svg PUBLIC "-//W3C//DTD SVG 1.1//EN" "http://www.w3.org/Graphics/SVG/1.1/DTD/svg11.dtd"><svg t="1651212530641" class="icon" viewBox="0 0 1280 1024" version="1.1" xmlns="http://www.w3.org/2000/svg" p-id="1977" xmlns:xlink="http://www.w3.org/1999/xlink" width="250" height="200"><defs><style type="text/css">@font-face { font-family: feedback-iconfont; src: url("//at.alicdn.com/t/font_1031158_u69w8yhxdu.woff2?t=1630033759944") format("woff2"), url("//at.alicdn.com/t/font_1031158_u69w8yhxdu.woff?t=1630033759944") format("woff"), url("//at.alicdn.com/t/font_1031158_u69w8yhxdu.ttf?t=1630033759944") format("truetype"); }
</style></defs><path d="M1160.2304 594.7776c0-87.936 0-175.8848 0.0256-263.808 0.0128-13.7856-4.3264-25.9712-18.4192-35.8912-9.9968-7.04-22.1952-8.32-34.5216-10.0224H190.208c-8.8064 1.6128-18.1504 1.216-26.4064 5.0816-16.8576 7.936-26.0992 19.136-27.5456 34.0096v451.1744c2.3808 6.08 2.0864 12.5952 6.7712 18.3808 10.4064 12.8512 25.3312 19.6992 45.184 20.7232h919.104c20.736-1.088 36.4672-8.1408 46.6688-22.0032 5.9136-8.0384 6.144-16.832 6.1696-25.5232 0.1664-57.3696 0.0768-114.7392 0.0768-172.1216z" fill="#B3B3B3" p-id="1978"></path><path d="M1160.2304 555.2c0-87.936 0-175.8976 0.0256-263.8208 0.0128-13.7856-4.3264-25.9712-18.4192-35.8912-9.9968-7.04-22.1952-8.32-34.5216-10.0224H190.208c-8.8064 1.6128-18.1504 1.216-26.4064 5.0816-16.8576 7.936-26.0992 19.136-27.5456 34.0096V735.744c2.3808 6.0672 2.0864 12.5952 6.7712 18.3808 10.4064 12.8512 25.3312 19.6992 45.184 20.7232h919.104c20.736-1.1008 36.4672-8.1408 46.6688-22.0032 5.9136-8.0512 6.144-16.832 6.1696-25.5232 0.1664-57.3696 0.0768-114.752 0.0768-172.1216z" fill="#E5E7E6" p-id="1979" data-spm-anchor-id="a313x.7781069.0.i2" class="selected"></path><path d="M795.3792 510.9888v-172.288c0-18.6496 11.8784-31.9488 28.6208-32.064 17.6256-0.128 29.7728 12.672 29.7728 31.9488 0.0512 115.1744 0.0256 230.336-0.0512 345.5104 0 18.2656-12.6976 31.4624-29.5936 31.2064-16.6016-0.2432-28.7232-13.2736-28.736-31.104-0.0256-57.7408-0.0128-115.456-0.0128-173.2096zM703.488 500.7744c-5.0944-4.1728-5.952-7.0144-3.2768-13.184 22.8608-52.48-8.5376-111.1424-64.96-120.9856-23.4624-4.0832-47.3088-1.1648-70.9888-1.4848-19.8912-0.256-31.5264 11.8016-31.5776 31.9104-0.0896 38.0032-0.0256 76.0064-0.0256 113.9968h-0.0768v114.0096c-0.0256 19.7376 11.8144 31.7568 31.744 31.872 27.3664 0.1408 54.7328 0.0256 82.0736 0.128 39.2704 0.1536 72.128-21.9136 85.0048-57.1648 13.3248-36.4288 2.9952-73.8432-27.9168-99.0976z m-112.4352-49.0112c0.0128-7.2832 0.192-14.592-0.0384-21.8752-0.1408-4.5312 1.216-6.7072 6.1568-6.528 8.192 0.2944 16.4224-0.2816 24.6016 0.2048a28.9536 28.9536 0 0 1 27.6352 29.4784 29.2992 29.2992 0 0 1-28.5184 28.6976c-7.872 0.2688-15.7952-0.2048-23.6928 0.1152-4.8512 0.192-6.4-1.7152-6.2336-6.3616 0.2688-7.9104 0.0896-15.808 0.0896-23.7312z m58.0352 146.752c-16.9728 0.192-33.9328-0.256-50.9184 0.064-5.6064 0.1024-7.36-1.6128-7.2448-7.1936 0.3328-14.8352 0.2688-29.696 0.0256-44.544-0.1024-5.1456 1.6384-6.9376 6.784-6.7456 8.7808 0.3072 17.5616 0.0896 26.3552 0.0896v0.0384c8.4864 0 16.9856-0.2432 25.4592 0.0512 16.9472 0.5632 29.4272 13.5168 29.0432 29.7856-0.3456 15.7952-13.0816 28.2624-29.504 28.4544z" fill="#B3B3B3" p-id="1980"></path><path d="M501.2992 614.9376c-4.0192-11.4688-8.384-22.7968-12.5568-34.2016-23.7184-64.704-47.3728-129.4208-71.1424-194.0992-5.2224-14.2208-15.9616-21.632-30.4-21.6192-16.768 0.0128-26.112 6.3744-31.808 22.016-27.4304 75.3024-54.7712 150.6432-82.2144 225.9328-2.5472 6.976-4.288 13.888-2.0736 21.312 3.8016 12.7744 14.4128 21.8112 26.8032 22.656 14.3232 0.96 26.8672-6.1184 31.4624-19.84 2.7008-8.0384 6.7456-9.8432 14.4768-9.472 13.9776 0.6272 27.968 0.1792 41.9584 0.1792v-0.0256c15.2064 0 30.4128 0.384 45.6064-0.1664 6.8992-0.2688 10.0352 1.92 12.416 8.512 5.952 16.4736 23.1552 24.0512 39.2192 18.24 15.7952-5.7216 23.9488-23.1552 18.2528-39.424z m-141.6576-45.5296c-3.8016 0.0256-4.9536-1.2544-3.6224-4.8512 9.8176-26.7136 19.584-53.4528 31.744-80.6144l31.296 85.4144c-20.7104 0-40.064-0.0384-59.4176 0.0512z" fill="#29ABE2" p-id="1981" data-spm-anchor-id="a313x.7781069.0.i3" class="selected"></path></svg>