<svg t="1710834490617" class="icon" viewBox="0 0 1167 1024" version="1.1" xmlns="http://www.w3.org/2000/svg" p-id="4280" width="200" height="200"><path d="M236.165969 108.58114v236.165969H54.29057C24.432746 344.747109 0 369.178528 0 399.037679v380.036642c0 29.860477 24.43142 54.29057 54.29057 54.29057h181.875399v81.435855c0 59.720953 48.861513 108.582466 108.58114 108.582466H1058.672746c59.719627 0 108.58114-48.861513 108.58114-108.582466v-81.435855c0-16.287171-10.858114-27.145285-27.145285-27.145285S1112.963316 817.07772 1112.963316 833.364891v81.435855c0 29.860477-24.43142 54.291896-54.29057 54.291896H344.747109c-29.860477 0-54.29057-24.43142-54.29057-54.291896v-81.435855H957.015544c29.860477 0 54.29057-24.430093 54.29057-54.29057V399.037679c0-29.85915-24.430093-54.29057-54.29057-54.29057H290.456539V108.582466c0-29.860477 24.430093-54.29057 54.29057-54.29057h551.052601v141.155482c0 46.147648 35.288207 81.435855 81.435855 81.435855H1112.963316v393.608622c0 16.287171 10.858114 27.145285 27.145285 27.145285S1167.253886 686.779026 1167.253886 670.491855V222.592663L950.09028 0H344.747109c-59.719627 0-108.58114 48.861513-108.58114 108.58114z m713.924311 86.866238V76.006798l141.156808 146.585865h-114.011523c-16.287171 0-27.145285-13.573306-27.145285-27.145285zM423.394819 529.163938h-28.262135c-1.413969-11.932518-7.144124-21.196269-17.193119-27.789928-10.048995-6.594984-22.374135-9.892477-36.97542-9.892476-10.67772 0-20.019731 1.727005-28.027357 5.182342-7.928041 3.45401-14.130404 8.202611-18.605762 14.248456-4.395772 6.044518-6.593658 12.914073-6.593658 20.607336 0 6.43714 1.530694 11.972311 4.592083 16.604187 3.140974 4.55229 7.144124 8.360456 12.012103 11.421844a85.949679 85.949679 0 0 0 15.30827 7.418695c5.337534 1.88485 10.245306 3.415544 14.719337 4.593409l24.493761 6.593658c6.280622 1.648746 13.266902 3.924891 20.961493 6.829762 7.771523 2.90487 15.190218 6.869554 22.256082 11.894052 7.144124 4.946238 13.032124 11.305119 17.662674 19.076642 4.631876 7.771523 6.947813 17.309845 6.947813 28.614964 0 13.032124-3.414218 24.808124-10.243979 35.328-6.751503 10.519876-16.643979 18.880332-29.676103 25.082694-12.952539 6.201036-28.693223 9.302218-47.220726 9.302218-17.270052 0-32.225492-2.786819-44.864995-8.360456-12.561244-5.573637-22.452394-13.346487-29.674777-23.315897-7.144124-9.970736-11.187067-21.550425-12.130155-34.739067h30.146984c0.785244 9.107233 3.846632 16.642653 9.184166 22.608912 5.417119 5.888 12.246881 10.285098 20.490611 13.189969 8.32199 2.825285 17.271378 4.239254 26.848166 4.239254 11.148601 0 21.157803-1.806591 30.028933-5.417119 8.87113-3.690114 15.897202-8.79287 21.078217-15.30827 5.181016-6.594984 7.77285-14.288249 7.77285-23.081119 0-8.007627-2.237679-14.523026-6.713036-19.547523-4.474031-5.024497-10.362031-9.107233-17.664-12.246881-7.300642-3.140974-15.190218-5.888-23.668725-8.243731l-29.674778-8.478507c-18.841865-5.415793-33.757513-13.14885-44.748269-23.197845-10.990756-10.048995-16.486135-23.197845-16.486135-39.449202 0-13.503005 3.650321-25.279005 10.950964-35.326674 7.380228-10.127254 17.271378-17.978363 29.676104-23.552 12.481658-5.651896 26.417078-8.478508 41.803606-8.478507 15.544373 0 29.360415 2.786819 41.450777 8.360455 12.089036 5.495378 21.66715 13.032124 28.733015 22.610239 7.144124 9.576788 10.912497 20.450819 11.30512 32.618114z m-247.880954 112.105451V468.872622h29.203897v172.396767c0 15.387855-2.826611 28.458446-8.478508 39.214424-5.651896 10.754653-13.621057 18.918798-23.904829 24.493762-10.283772 5.573637-22.412601 8.360456-36.387814 8.360456-13.188642 0-24.923523-2.394197-35.208621-7.183917-10.285098-4.866653-18.370984-11.776-24.258985-20.725389C70.592332 676.479337 67.647668 665.841409 67.647668 653.516269h28.733016c0 6.829762 1.687212 12.797347 5.062964 17.900104 3.455337 5.024497 8.165472 8.949389 14.13173 11.774674 5.966259 2.826611 12.757554 4.24058 20.371233 4.24058 8.400249 0 15.544373-1.766798 21.432373-5.299067 5.888-3.533596 10.363358-8.714611 13.424747-15.544373 3.139648-6.909347 4.710135-15.348062 4.710134-25.318798z m502.679213-51.812809c0 25.435523-4.592083 47.417036-13.777575 65.944539-9.185492 18.527503-21.785202 32.814425-37.800456 42.86342-16.015254 10.048995-34.306653 15.073492-54.875524 15.073492-20.567544 0-38.860269-5.024497-54.875523-15.073492-16.013927-10.048995-28.614964-24.335917-37.79913-42.86342-9.185492-18.527503-13.778902-40.509016-13.778901-65.944539 0-25.435523 4.593409-47.417036 13.778901-65.944539 9.184166-18.527503 21.785202-32.815751 37.79913-42.863419C532.879254 470.599627 551.171979 465.57513 571.739523 465.57513c20.56887 0 38.860269 5.024497 54.875524 15.073492 16.015254 10.047668 28.614964 24.335917 37.800456 42.863419 9.185492 18.527503 13.777575 40.509016 13.777575 65.944539z m-28.262135 0c0-20.881907-3.493803-38.50744-10.480083-52.873948-6.909347-14.366508-16.289824-25.239212-28.144083-32.618114-11.776-7.380228-24.964642-11.069016-39.567254-11.069015-14.601285 0-27.82972 3.688788-39.683979 11.069015-11.776 7.378902-21.157803 18.251606-28.144083 32.618114-6.909347 14.366508-10.363358 31.992041-10.363357 52.873948 0 20.881907 3.45401 38.506114 10.363357 52.872622 6.98628 14.366508 16.368083 25.240539 28.144083 32.61944 11.854259 7.378902 25.082694 11.069016 39.683979 11.069016 14.602611 0 27.791254-3.690114 39.567254-11.069016 11.854259-7.378902 21.234736-18.252933 28.144083-32.61944 6.98628-14.366508 10.480083-31.990715 10.480083-52.872622z m239.873326-120.583958h28.733016v241.167917h-28.262135l-131.418197-189.355109h-2.354404v189.355109h-29.205223V468.872622h28.262135l131.889078 189.825989h2.35573V468.872622z" p-id="4281"></path></svg>