<svg t="1657079045850" class="icon" viewBox="0 0 1032 1024" version="1.1" xmlns="http://www.w3.org/2000/svg" p-id="8603" width="200" height="200"><path d="M0.028247 590.017829c0-131.516596 0-263.004946 0-394.521542 0-27.484031 11.468157-38.867448 39.206408-38.867448 263.004946-0.028247 526.009892-0.028247 789.014838 0 27.540524 0 39.121668 11.581144 39.121668 39.093421 0.028247 263.004946 0.028247 526.009892 0 789.014838 0 27.738251-11.411663 39.234655-38.839201 39.262901-263.372153 0-526.744306 0-790.088213 0-26.975591 0-38.443747-11.468157-38.443747-38.415501C0 853.728943 0.028247 721.873386 0.028247 590.017829L0.028247 590.017829zM433.784444 219.844935c-118.607858 0-237.243963 0-355.851822 0-14.68828 0-14.744773 0.028247-14.744773 14.829513 0 236.876756 0 473.753513 0 710.630269 0 15.479187 0.028247 15.507434 15.19672 15.507434 236.876756 0 473.753513 0 710.630269 0 15.140227 0 15.168473-0.028247 15.168473-15.422694 0-236.876756 0-473.753513 0-710.630269 0-14.886007-0.028247-14.914253-14.547046-14.914253C671.028407 219.816688 552.392302 219.844935 433.784444 219.844935L433.784444 219.844935z" p-id="8604" fill="#707070"></path><path d="M598.095449 0.057427c131.149389 0 262.298779 0 393.419922 0 28.670392 0 40.392769 11.496404 40.392769 40.336276 0.056493 262.298779 0.056493 524.569311 0 786.86809 0 28.924612-11.581144 40.195042-40.364522 40.223289-19.659697 0.028247-39.319395 0.141233-58.979092-0.056493-19.687944-0.16948-33.952523-13.332438-34.009017-31.014867-0.056493-17.993143 13.643152-31.353828 33.274603-32.059995 9.264915-0.33896 18.586323-0.33896 27.879485-0.028247 7.00518 0.225974 9.829849-2.768176 9.264915-9.575628-0.197727-2.485709-0.028247-4.999664-0.028247-7.51362 0-235.859875 0-471.691504 0-707.523133 0-16.383081 0-16.411328-16.241848-16.411328-236.566043 0-473.132085 0-709.698128 0-16.467821 0-16.467821 0.028247-16.496068 16.128861 0 5.366871 0.141233 10.733743-0.08474 16.072368-0.593181 15.11198-12.287311 27.794745-27.286304 29.743766-14.744773 1.892528-30.930127-7.6831-33.331096-22.512613-4.321744-26.495397-4.208757-53.442741 0-79.966384 2.062008-12.965231 14.179839-21.382746 28.077212-22.54086 4.26525-0.33896 8.558748-0.197727 12.852245-0.197727C337.237252 0.057427 467.680474 0.057427 598.095449 0.057427L598.095449 0.057427z" p-id="8605" fill="#707070"></path><path d="M384.437474 796.755366c-7.457127-0.028247-14.038606-2.457462-19.518464-7.51362-13.417179-12.315558-26.80611-24.602868-40.082055-37.087906-41.861597-39.375888-83.694947-78.80827-125.443558-118.325391-8.389267-7.93732-12.004844-17.682429-8.445761-29.150586 3.474343-11.27043 11.326923-17.936649 22.823327-20.139891 9.999329-1.892528 18.106129 2.090255 25.252542 8.728228 17.512949 16.270094 35.138884 32.455449 52.567093 48.83853 27.597018 25.902216 55.278776 51.691446 82.3956 78.073856 6.524986 6.355506 10.027576 5.140898 15.168473-0.988634 58.470652-69.769328 117.05429-139.397423 175.666175-209.025518 28.048965-33.331096 56.041436-66.662192 84.288128-99.795562 11.072703-12.965231 27.653511-14.801266 40.251536-5.197391 12.456791 9.490888 15.11198 26.410657 4.237004 40.053809-21.128525 26.495397-43.302178 52.17164-65.108624 78.130349-59.261559 70.475496-118.551365 140.950991-177.869417 211.369994-14.490553 17.202235-29.150586 34.23499-43.754125 51.352485C400.990035 792.970309 393.674142 796.868352 384.437474 796.755366L384.437474 796.755366z" p-id="8606" fill="#707070"></path></svg>